<?xml version="1.0" encoding="UTF-8" standalone="no"?>
<!DOCTYPE svg PUBLIC "-//W3C//DTD SVG 1.1//EN" "http://www.w3.org/Graphics/SVG/1.1/DTD/svg11.dtd">
<svg width="100%" height="100%" viewBox="0 0 178 87" version="1.1" xmlns="http://www.w3.org/2000/svg" xmlns:xlink="http://www.w3.org/1999/xlink" xml:space="preserve" xmlns:serif="http://www.serif.com/" style="fill-rule:evenodd;clip-rule:evenodd;stroke-linejoin:round;stroke-miterlimit:2;">
    <g id="rect2">
    </g>
    <g id="g46" transform="matrix(1.46033,0,0,1.46033,-1174.02,168.252)">
        <path id="path46" d="M817.656,-100.229L817.656,-91.01C817.656,-89.801 817.851,-88.759 818.264,-87.892L818.266,-87.889L818.268,-87.883C818.698,-87.022 819.332,-86.345 820.141,-85.889L820.149,-85.885C820.957,-85.45 821.899,-85.24 822.952,-85.24C824.149,-85.24 825.237,-85.534 826.175,-86.125C826.392,-86.262 826.548,-86.465 826.739,-86.631L826.739,-85.462L830.04,-85.462L830.04,-100.229L826.739,-100.229L826.739,-92.888C826.739,-91.749 826.6,-90.839 826.349,-90.168C826.095,-89.491 825.743,-89.022 825.292,-88.711C824.858,-88.416 824.317,-88.26 823.624,-88.26C823,-88.26 822.516,-88.386 822.138,-88.611C821.764,-88.852 821.477,-89.205 821.264,-89.724C821.068,-90.269 820.96,-90.978 820.96,-91.851L820.96,-100.229L817.656,-100.229Z" style="fill:rgb(215,226,244);fill-rule:nonzero;"/>
    </g>
    <g id="g47" transform="matrix(1.46033,0,0,1.46033,-1174.02,168.252)">
        <path id="path47" d="M833.76,-105.467L833.76,-88.943C833.76,-87.762 834.032,-86.814 834.66,-86.185C835.258,-85.588 836.065,-85.285 836.981,-85.285C837.29,-85.285 837.625,-85.327 837.988,-85.403C838.365,-85.463 838.727,-85.563 839.068,-85.703L839.354,-85.82L839.354,-88.736L838.746,-88.535C838.546,-88.468 838.358,-88.419 838.182,-88.387C838.003,-88.354 837.847,-88.34 837.717,-88.34C837.453,-88.34 837.316,-88.404 837.184,-88.547C837.081,-88.658 836.976,-88.916 836.976,-89.381L836.976,-105.467L833.76,-105.467Z" style="fill:rgb(215,226,244);fill-rule:nonzero;"/>
    </g>
    <g id="g48" transform="matrix(1.46033,0,0,1.46033,-1174.02,168.252)">
        <path id="path48" d="M846.834,-105.502L843.565,-103.678L843.565,-100.139L840.695,-100.139L840.695,-97.433L843.565,-97.433L843.565,-89.39C843.565,-88.461 843.721,-87.668 844.064,-87.024C844.4,-86.394 844.883,-85.908 845.488,-85.606L845.496,-85.602L845.504,-85.599C846.106,-85.33 846.77,-85.195 847.479,-85.195C847.839,-85.195 848.207,-85.226 848.582,-85.285C848.986,-85.346 849.381,-85.446 849.764,-85.588L850.041,-85.689L850.041,-88.387L849.514,-88.256C849.222,-88.183 848.948,-88.119 848.694,-88.064C848.455,-88.031 848.252,-88.015 848.098,-88.015C847.554,-88.015 847.304,-88.152 847.143,-88.424C846.953,-88.761 846.834,-89.288 846.834,-90.01L846.834,-97.433L850.041,-97.433L850.041,-100.139L846.834,-100.139L846.834,-105.502Z" style="fill:rgb(29,122,233);fill-rule:nonzero;"/>
    </g>
    <g id="path49" transform="matrix(2.83465,0,0,2.83465,-8.20949,-388.708)">
        <path d="M32.077,144.778C31.709,144.778 31.336,144.876 30.963,145.062L30.962,145.062L30.961,145.063C30.682,145.207 30.451,145.438 30.222,145.671L30.222,144.894L28.553,144.894L28.553,152.477L30.222,152.477L30.222,148.91C30.222,148.538 30.232,148.25 30.25,148.049L30.25,148.046C30.278,147.836 30.311,147.669 30.345,147.552C30.433,147.271 30.556,147.059 30.709,146.906C30.873,146.742 31.049,146.625 31.241,146.55C31.45,146.471 31.655,146.433 31.859,146.433C31.984,146.433 32.115,146.451 32.254,146.485L32.257,146.485C32.409,146.521 32.533,146.565 32.629,146.613L32.818,146.707L33.635,145.23L33.442,145.124C33.215,145 32.989,144.91 32.764,144.856C32.544,144.804 32.314,144.778 32.076,144.778L32.077,144.778Z" style="fill:rgb(29,122,233);fill-rule:nonzero;"/>
    </g>
    <g id="path50" transform="matrix(2.83465,0,0,2.83465,-8.20949,-388.708)">
        <path d="M37.725,144.778C37.09,144.778 36.498,144.895 35.957,145.13C35.413,145.356 34.93,145.717 34.515,146.202L34.373,146.37L35.591,147.408L35.733,147.24C36.037,146.881 36.342,146.638 36.642,146.5L36.646,146.498C36.955,146.348 37.283,146.274 37.638,146.274C38.201,146.274 38.583,146.411 38.831,146.659L38.831,146.661C39.092,146.914 39.227,147.27 39.227,147.779L39.227,147.822L37.244,147.822C36.874,147.822 36.518,147.856 36.175,147.926C36.175,147.926 36.174,147.927 36.173,147.927C35.83,147.99 35.517,148.111 35.242,148.291C34.96,148.466 34.726,148.711 34.547,149.017L34.547,149.018L34.546,149.019C34.369,149.329 34.286,149.703 34.286,150.128C34.286,150.607 34.402,151.043 34.638,151.418L34.639,151.42L34.641,151.422C34.885,151.794 35.228,152.087 35.655,152.295L35.658,152.296L35.661,152.298C36.1,152.496 36.605,152.592 37.171,152.592C37.713,152.592 38.202,152.479 38.624,152.246L38.625,152.246L38.626,152.245C38.89,152.097 39.07,151.846 39.275,151.626L39.327,152.477L40.883,152.477L40.883,147.779C40.883,146.848 40.606,146.091 40.046,145.562C39.485,145.034 38.696,144.778 37.721,144.778L37.725,144.778ZM37.421,149.187L39.23,149.187L39.23,149.243C39.23,149.612 39.141,149.935 38.959,150.229L38.959,150.231C38.785,150.519 38.555,150.741 38.257,150.907L38.255,150.907L38.254,150.908C37.97,151.072 37.654,151.155 37.291,151.155C36.852,151.155 36.531,151.054 36.297,150.869C36.064,150.684 35.959,150.464 35.959,150.142C35.959,149.976 35.989,149.842 36.04,149.732C36.102,149.617 36.18,149.524 36.277,149.448C36.422,149.344 36.589,149.276 36.791,149.242C37.012,149.205 37.223,149.187 37.422,149.187L37.421,149.187Z" style="fill:rgb(29,122,233);fill-rule:nonzero;"/>
    </g>
    <g id="path51" transform="matrix(2.83465,0,0,2.83465,-8.20949,-388.708)">
        <path d="M45.752,144.778C45.194,144.778 44.687,144.88 44.239,145.089L44.239,145.09C43.806,145.296 43.435,145.587 43.136,145.959C43.135,145.959 43.136,145.96 43.136,145.96C42.838,146.32 42.611,146.736 42.458,147.205C42.306,147.672 42.23,148.163 42.23,148.678C42.23,149.201 42.306,149.698 42.458,150.166C42.611,150.634 42.836,151.055 43.133,151.423L43.133,151.426C43.434,151.789 43.804,152.075 44.237,152.282C44.685,152.49 45.191,152.592 45.749,152.592C46.461,152.592 47.097,152.417 47.637,152.064L47.637,152.063C48.192,151.697 48.599,151.144 48.854,150.432L48.925,150.232L47.424,149.652L47.352,149.871C47.228,150.253 47.033,150.546 46.768,150.769C46.512,150.974 46.183,151.082 45.748,151.082C45.313,151.082 44.978,150.974 44.712,150.767C44.434,150.541 44.226,150.253 44.084,149.89C43.949,149.51 43.881,149.107 43.881,148.677C43.881,148.248 43.948,147.852 44.083,147.482L44.083,147.481C44.225,147.117 44.434,146.829 44.713,146.602C44.98,146.385 45.314,146.274 45.748,146.274C46.183,146.274 46.511,146.385 46.767,146.6C47.034,146.824 47.228,147.114 47.352,147.486L47.425,147.705L48.925,147.124L48.854,146.923C48.599,146.212 48.192,145.664 47.636,145.307L47.636,145.306C47.096,144.953 46.461,144.778 45.749,144.778L45.752,144.778Z" style="fill:rgb(29,122,233);fill-rule:nonzero;"/>
    </g>
    <g id="path52" transform="matrix(2.83465,0,0,2.83465,-8.20949,-388.708)">
        <rect x="12.635" y="155.071" width="45.113" height="1.513" style="fill:rgb(29,122,233);"/>
    </g>
    <g id="path53" transform="matrix(2.83465,0,0,2.83465,-8.20949,-388.708)">
        <path d="M7.159,155.091L7.159,156.587L18.988,156.587C20.723,156.587 21.678,156.9 22.285,157.299C22.893,157.699 23.217,158.226 23.6,158.886C23.983,159.547 24.418,160.346 25.274,160.957C26.13,161.568 27.344,161.931 29.147,161.931L57.677,161.931L57.677,160.434L29.147,160.434C27.539,160.434 26.69,160.129 26.143,159.738C25.595,159.348 25.286,158.811 24.895,158.136C24.504,157.46 24.024,156.651 23.108,156.049C22.192,155.446 20.905,155.091 18.988,155.091L7.159,155.091Z" style="fill:rgb(215,226,244);fill-rule:nonzero;"/>
    </g>
    <g id="path54" transform="matrix(2.83465,0,0,2.83465,-8.20949,-388.708)">
        <path d="M57.194,153.916C57.945,154.291 61.025,155.869 61.025,155.869L57.194,157.747L57.194,153.916Z" style="fill:rgb(29,122,233);fill-rule:nonzero;"/>
    </g>
    <g id="path55" transform="matrix(2.83465,0,0,2.83465,-8.20949,-388.708)">
        <path d="M57.194,159.268C57.945,159.644 61.025,161.222 61.025,161.222L57.194,163.1L57.194,159.268Z" style="fill:rgb(215,226,244);fill-rule:nonzero;"/>
    </g>
    <g id="path56" transform="matrix(2.83465,0,0,2.83465,-8.20949,-388.708)">
        <path d="M50.356,141.975L50.356,152.515L52.026,152.515L52.026,150.053L53.036,148.969L55.326,152.515L57.313,152.515L54.246,147.815L57.05,144.933L54.86,144.933L52.026,147.853L52.026,141.975L50.356,141.975Z" style="fill:rgb(29,122,233);fill-rule:nonzero;"/>
    </g>
</svg>
