<?xml version="1.0" encoding="UTF-8" standalone="no"?>
<!DOCTYPE svg PUBLIC "-//W3C//DTD SVG 1.1//EN" "http://www.w3.org/Graphics/SVG/1.1/DTD/svg11.dtd">
<svg width="100%" height="100%" viewBox="0 0 153 60" version="1.1" xmlns="http://www.w3.org/2000/svg" xmlns:xlink="http://www.w3.org/1999/xlink" xml:space="preserve" xmlns:serif="http://www.serif.com/" style="fill-rule:evenodd;clip-rule:evenodd;stroke-linejoin:round;stroke-miterlimit:2;">
    <g id="g60" transform="matrix(1.46033,0,0,1.46033,-1186.1,154.511)">
        <path id="path60" d="M817.656,-100.229L817.656,-91.01C817.656,-89.801 817.851,-88.759 818.264,-87.892L818.266,-87.889L818.268,-87.883C818.698,-87.022 819.332,-86.345 820.141,-85.889L820.149,-85.885C820.957,-85.45 821.899,-85.24 822.952,-85.24C824.149,-85.24 825.237,-85.534 826.175,-86.125C826.392,-86.262 826.548,-86.465 826.739,-86.631L826.739,-85.462L830.04,-85.462L830.04,-100.229L826.739,-100.229L826.739,-92.888C826.739,-91.749 826.6,-90.839 826.349,-90.168C826.095,-89.491 825.743,-89.022 825.292,-88.711C824.858,-88.416 824.317,-88.26 823.624,-88.26C823,-88.26 822.516,-88.386 822.138,-88.611C821.764,-88.852 821.477,-89.205 821.264,-89.724C821.068,-90.269 820.96,-90.978 820.96,-91.851L820.96,-100.229L817.656,-100.229Z" style="fill:rgb(22,45,80);fill-rule:nonzero;"/>
    </g>
    <g id="g65" transform="matrix(1.46033,0,0,1.46033,-1186.1,154.511)">
        <path id="path65" d="M833.76,-105.467L833.76,-88.943C833.76,-87.762 834.032,-86.814 834.66,-86.185C835.258,-85.588 836.065,-85.285 836.981,-85.285C837.29,-85.285 837.625,-85.327 837.988,-85.403C838.365,-85.463 838.727,-85.563 839.068,-85.703L839.354,-85.82L839.354,-88.736L838.746,-88.535C838.546,-88.468 838.358,-88.419 838.182,-88.387C838.003,-88.354 837.847,-88.34 837.717,-88.34C837.453,-88.34 837.316,-88.404 837.184,-88.547C837.081,-88.658 836.976,-88.916 836.976,-89.381L836.976,-105.467L833.76,-105.467Z" style="fill:rgb(22,45,80);fill-rule:nonzero;"/>
    </g>
    <g id="g70" transform="matrix(1.46033,0,0,1.46033,-1186.1,154.511)">
        <path id="path70" d="M846.834,-105.502L843.565,-103.678L843.565,-100.139L840.695,-100.139L840.695,-97.433L843.565,-97.433L843.565,-89.39C843.565,-88.461 843.721,-87.668 844.064,-87.024C844.4,-86.394 844.883,-85.908 845.488,-85.606L845.496,-85.602L845.504,-85.599C846.106,-85.33 846.77,-85.195 847.479,-85.195C847.839,-85.195 848.207,-85.226 848.582,-85.285C848.986,-85.346 849.381,-85.446 849.764,-85.588L850.041,-85.689L850.041,-88.387L849.514,-88.256C849.222,-88.183 848.948,-88.119 848.694,-88.064C848.455,-88.031 848.252,-88.015 848.098,-88.015C847.554,-88.015 847.304,-88.152 847.143,-88.424C846.953,-88.761 846.834,-89.288 846.834,-90.01L846.834,-97.433L850.041,-97.433L850.041,-100.139L846.834,-100.139L846.834,-105.502Z" style="fill:rgb(29,122,233);fill-rule:nonzero;"/>
    </g>
    <g id="path75" transform="matrix(2.83465,0,0,2.83465,-207.072,-402.449)">
        <path d="M97.968,144.778C97.601,144.778 97.227,144.876 96.855,145.062L96.854,145.062L96.853,145.063C96.573,145.207 96.342,145.438 96.113,145.671L96.113,144.894L94.444,144.894L94.444,152.477L96.113,152.477L96.113,148.91C96.113,148.538 96.123,148.25 96.141,148.049C96.141,148.048 96.141,148.047 96.141,148.046C96.169,147.836 96.203,147.669 96.236,147.552C96.324,147.271 96.447,147.059 96.6,146.906C96.764,146.742 96.94,146.625 97.132,146.55C97.341,146.471 97.546,146.433 97.75,146.433C97.876,146.433 98.006,146.451 98.145,146.485L98.148,146.485C98.3,146.521 98.424,146.565 98.521,146.613L98.709,146.707L99.526,145.23L99.333,145.124C99.106,145 98.88,144.91 98.656,144.856C98.435,144.804 98.205,144.778 97.967,144.778L97.968,144.778Z" style="fill:rgb(29,122,233);fill-rule:nonzero;"/>
    </g>
    <g id="path80" transform="matrix(2.83465,0,0,2.83465,-207.072,-402.449)">
        <path d="M103.616,144.778C102.981,144.778 102.39,144.895 101.848,145.13C101.304,145.356 100.821,145.717 100.407,146.202L100.264,146.37L101.482,147.408L101.624,147.24C101.928,146.881 102.233,146.638 102.534,146.5L102.538,146.498C102.846,146.348 103.174,146.274 103.53,146.274C104.092,146.274 104.474,146.411 104.722,146.659L104.722,146.661C104.983,146.914 105.118,147.27 105.118,147.779L105.118,147.822L103.135,147.822C102.766,147.822 102.409,147.856 102.066,147.926C102.066,147.926 102.065,147.927 102.065,147.927C101.721,147.99 101.408,148.111 101.133,148.291C100.851,148.466 100.618,148.711 100.438,149.017L100.438,149.018L100.437,149.019C100.26,149.329 100.177,149.703 100.177,150.128C100.177,150.607 100.293,151.043 100.529,151.418L100.53,151.42L100.532,151.422C100.776,151.794 101.119,152.087 101.546,152.295L101.549,152.296L101.552,152.298C101.991,152.496 102.497,152.592 103.062,152.592C103.605,152.592 104.093,152.479 104.515,152.246L104.516,152.246L104.517,152.245C104.782,152.097 104.961,151.846 105.166,151.626L105.218,152.477L106.774,152.477L106.774,147.779C106.774,146.848 106.498,146.091 105.937,145.562C105.376,145.034 104.587,144.778 103.612,144.778L103.616,144.778ZM103.312,149.187L105.122,149.187L105.122,149.243C105.122,149.612 105.032,149.935 104.85,150.229L104.85,150.231C104.676,150.519 104.446,150.741 104.149,150.907L104.147,150.907L104.146,150.908C103.861,151.072 103.545,151.155 103.183,151.155C102.744,151.155 102.422,151.054 102.189,150.869C101.956,150.684 101.851,150.464 101.851,150.142C101.851,149.976 101.88,149.842 101.931,149.732C101.993,149.617 102.071,149.524 102.168,149.448C102.313,149.344 102.481,149.276 102.682,149.242C102.904,149.205 103.114,149.187 103.313,149.187L103.312,149.187Z" style="fill:rgb(29,122,233);fill-rule:nonzero;"/>
    </g>
    <g id="path85" transform="matrix(2.83465,0,0,2.83465,-207.072,-402.449)">
        <path d="M111.643,144.778C111.085,144.778 110.578,144.88 110.131,145.089L110.131,145.09C109.697,145.296 109.327,145.587 109.027,145.959C109.027,145.959 109.027,145.96 109.027,145.96C108.729,146.32 108.502,146.736 108.35,147.205C108.197,147.672 108.121,148.163 108.121,148.678C108.121,149.201 108.197,149.698 108.35,150.166C108.502,150.634 108.727,151.055 109.025,151.423L109.025,151.426C109.325,151.789 109.696,152.075 110.128,152.282C110.576,152.49 111.083,152.592 111.641,152.592C112.352,152.592 112.988,152.417 113.528,152.064L113.528,152.063C114.083,151.697 114.491,151.144 114.745,150.432L114.816,150.232L113.315,149.652L113.243,149.871C113.119,150.253 112.924,150.546 112.659,150.769C112.404,150.974 112.074,151.082 111.64,151.082C111.205,151.082 110.869,150.974 110.603,150.767C110.325,150.541 110.117,150.253 109.975,149.89C109.84,149.51 109.772,149.107 109.772,148.677C109.772,148.248 109.84,147.852 109.974,147.482L109.974,147.481C110.117,147.117 110.325,146.829 110.604,146.602C110.871,146.385 111.205,146.274 111.64,146.274C112.074,146.274 112.402,146.385 112.658,146.6C112.925,146.824 113.119,147.114 113.243,147.486L113.316,147.705L114.816,147.124L114.745,146.923C114.491,146.212 114.083,145.664 113.527,145.307L113.527,145.306C112.987,144.953 112.352,144.778 111.641,144.778L111.643,144.778Z" style="fill:rgb(29,122,233);fill-rule:nonzero;"/>
    </g>
    <g id="path90" transform="matrix(2.83465,0,0,2.83465,-207.072,-402.449)">
        <rect x="78.526" y="155.071" width="45.113" height="1.513" style="fill:rgb(29,122,233);fill-rule:nonzero;"/>
    </g>
    <g id="path95" transform="matrix(2.83465,0,0,2.83465,-207.072,-402.449)">
        <path d="M73.05,155.091L73.05,156.587L84.879,156.587C86.614,156.587 87.569,156.9 88.176,157.299C88.784,157.699 89.109,158.226 89.491,158.886C89.874,159.547 90.309,160.346 91.165,160.957C92.021,161.568 93.235,161.931 95.039,161.931L123.568,161.931L123.568,160.434L95.039,160.434C93.43,160.434 92.582,160.129 92.034,159.738C91.487,159.348 91.178,158.811 90.786,158.136C90.395,157.46 89.915,156.651 88.999,156.049C88.083,155.446 86.796,155.091 84.879,155.091L73.05,155.091Z" style="fill:rgb(22,45,80);fill-rule:nonzero;"/>
    </g>
    <g id="path100" transform="matrix(2.83465,0,0,2.83465,-207.072,-402.449)">
        <path d="M123.085,153.916C123.837,154.291 126.917,155.869 126.917,155.869L123.085,157.747L123.085,153.916Z" style="fill:rgb(29,122,233);fill-rule:nonzero;"/>
    </g>
    <g id="path105" transform="matrix(2.83465,0,0,2.83465,-207.072,-402.449)">
        <path d="M123.085,159.268C123.837,159.644 126.917,161.222 126.917,161.222L123.085,163.1L123.085,159.268Z" style="fill:rgb(22,45,80);fill-rule:nonzero;"/>
    </g>
    <g id="path110" transform="matrix(2.83465,0,0,2.83465,-207.072,-402.449)">
        <path d="M116.247,141.975L116.247,152.515L117.918,152.515L117.918,150.053L118.927,148.969L121.217,152.515L123.204,152.515L120.137,147.815L122.941,144.933L120.751,144.933L117.918,147.853L117.918,141.975L116.247,141.975Z" style="fill:rgb(29,122,233);fill-rule:nonzero;"/>
    </g>
</svg>
